M48
; DRILL file {KiCad 6.0.1-79c1e3a40b~116~ubuntu21.10.1} date Sun 13 Mar 2022 07:18:43 PM MDT
; FORMAT={-:-/ absolute / metric / decimal}
; #@! TF.CreationDate,2022-03-13T19:18:43-06:00
; #@! TF.GenerationSoftware,Kicad,Pcbnew,6.0.1-79c1e3a40b~116~ubuntu21.10.1
; #@! TF.FileFunction,Plated,1,2,PTH
FMAT,2
METRIC
; #@! TA.AperFunction,Plated,PTH,ViaDrill
T1C0.400
; #@! TA.AperFunction,Plated,PTH,ComponentDrill
T2C0.700
; #@! TA.AperFunction,Plated,PTH,ComponentDrill
T3C0.800
; #@! TA.AperFunction,Plated,PTH,ComponentDrill
T4C1.020
; #@! TA.AperFunction,Plated,PTH,ComponentDrill
T5C1.270
%
G90
G05
T1
X73.2Y-35.4
X73.2Y-37.9
X73.2Y-41.9
X74.45Y-41.9
X75.45Y-44.15
X77.2Y-62.9
X78.7Y-36.4
X80.2Y-41.4
X80.2Y-42.65
X80.7Y-45.4
X80.95Y-55.4
X82.2Y-36.4
X82.45Y-56.15
X84.2Y-45.4
X84.7Y-41.4
X84.7Y-56.15
X85.2Y-42.9
X87.2Y-41.4
X87.2Y-45.4
X87.2Y-56.15
X88.2Y-42.9
X89.7Y-41.4
X89.7Y-56.15
X89.8Y-113.8
X90.2Y-45.4
X91.2Y-42.9
X91.35Y-132.0
X91.95Y-36.15
X91.95Y-55.9
X92.2Y-41.4
X93.2Y-45.4
X93.2Y-150.15
X94.2Y-42.9
X95.2Y-41.4
X95.2Y-55.9
X96.2Y-45.4
X97.2Y-42.9
X97.45Y-55.9
X97.7Y-41.4
X99.2Y-45.4
X99.95Y-55.9
X100.2Y-41.4
X100.2Y-42.9
X102.2Y-45.4
X102.45Y-55.9
X104.7Y-55.9
X105.2Y-45.4
X106.2Y-41.4
X107.2Y-42.9
X107.95Y-55.9
X108.2Y-41.4
X108.2Y-45.4
X109.7Y-42.4
X110.2Y-55.9
X111.2Y-45.4
X112.7Y-55.9
X113.7Y-45.4
X115.2Y-41.4
X115.2Y-42.9
X115.2Y-55.9
X116.7Y-45.4
X117.45Y-55.9
X117.7Y-41.4
X117.7Y-42.9
X119.7Y-45.4
X120.2Y-42.9
X120.7Y-41.4
X120.7Y-55.9
X121.7Y-48.65
X122.2Y-45.4
X122.7Y-42.9
X122.95Y-55.9
X123.2Y-41.4
X125.2Y-42.9
X125.7Y-41.4
X125.8Y-60.5
X125.9Y-38.0
X126.0Y-36.3
X127.5Y-38.0
X127.5Y-41.4
X127.5Y-42.9
X127.5Y-60.5
X129.7Y-46.3
X129.7Y-47.9
X129.7Y-49.4
X129.7Y-50.9
X129.7Y-52.4
X129.7Y-53.9
X129.7Y-55.4
X129.7Y-56.9
X129.7Y-58.4
X129.7Y-59.9
X130.95Y-42.65
X133.45Y-42.4
X133.45Y-43.9
X134.95Y-42.4
X134.95Y-43.9
T2
X103.66Y-35.65
X105.66Y-33.4
X108.74Y-35.65
X110.74Y-33.4
X130.45Y-36.36
X130.45Y-41.44
T3
X78.78Y-84.7
X78.79Y-66.5
X78.79Y-102.9
X78.79Y-121.1
X78.79Y-139.3
X86.4Y-84.7
X86.41Y-66.5
X86.41Y-102.9
X86.41Y-121.1
X86.41Y-139.3
X96.98Y-121.1
X96.99Y-66.5
X96.99Y-84.7
X96.99Y-102.9
X96.99Y-139.3
X104.6Y-121.1
X104.61Y-66.5
X104.61Y-84.7
X104.61Y-102.9
X104.61Y-139.3
X115.18Y-66.5
X115.18Y-84.7
X115.19Y-102.9
X115.19Y-121.1
X115.19Y-139.3
X122.8Y-66.5
X122.8Y-84.7
X122.81Y-102.9
X122.81Y-121.1
X122.81Y-139.3
X133.38Y-84.7
X133.39Y-66.5
X133.39Y-102.9
X133.39Y-121.1
X133.39Y-139.3
X141.0Y-84.7
X141.01Y-66.5
X141.01Y-102.9
X141.01Y-121.1
X141.01Y-139.3
X151.59Y-66.5
X151.59Y-84.7
X151.59Y-102.9
X151.59Y-121.1
X151.59Y-139.3
X159.21Y-66.5
X159.21Y-84.7
X159.21Y-102.9
X159.21Y-121.1
X159.21Y-139.3
T4
X75.82Y-39.76
X75.82Y-57.54
X78.36Y-39.76
X78.36Y-57.54
X80.9Y-39.76
X80.9Y-57.54
X83.44Y-39.76
X83.44Y-57.54
X85.98Y-39.76
X85.98Y-57.54
X88.52Y-39.76
X88.52Y-57.54
X91.06Y-39.76
X91.06Y-57.54
X93.6Y-39.76
X93.6Y-57.54
X96.14Y-39.76
X96.14Y-57.54
X98.68Y-39.76
X98.68Y-57.54
X101.22Y-39.76
X101.22Y-57.54
X103.76Y-39.76
X103.76Y-57.54
X106.3Y-39.76
X106.3Y-57.54
X108.84Y-39.76
X108.84Y-57.54
X111.38Y-39.76
X111.38Y-57.54
X113.92Y-39.76
X113.92Y-57.54
X116.46Y-39.76
X116.46Y-57.54
X119.0Y-39.76
X119.0Y-57.54
X121.54Y-39.76
X121.54Y-57.54
X123.85Y-46.11
X123.85Y-48.65
X123.85Y-51.19
X124.08Y-39.76
X124.08Y-57.54
T5
X78.0Y-75.3
X78.0Y-93.5
X78.0Y-111.7
X78.0Y-129.9
X78.0Y-148.1
X83.0Y-77.4
X83.0Y-95.6
X83.0Y-113.8
X83.0Y-132.0
X83.0Y-150.2
X96.2Y-75.3
X96.2Y-93.5
X96.2Y-111.7
X96.2Y-129.9
X96.2Y-148.1
X101.2Y-77.4
X101.2Y-95.6
X101.2Y-113.8
X101.2Y-132.0
X101.2Y-150.2
X114.4Y-75.3
X114.4Y-93.5
X114.4Y-111.7
X114.4Y-129.9
X114.4Y-148.1
X119.4Y-77.4
X119.4Y-95.6
X119.4Y-113.8
X119.4Y-132.0
X119.4Y-150.2
X132.6Y-75.3
X132.6Y-93.5
X132.6Y-111.7
X132.6Y-129.9
X132.6Y-148.1
X137.6Y-77.4
X137.6Y-95.6
X137.6Y-113.8
X137.6Y-132.0
X137.6Y-150.2
X150.8Y-75.3
X150.8Y-93.5
X150.8Y-111.7
X150.8Y-129.9
X150.8Y-148.1
X155.8Y-77.4
X155.8Y-95.6
X155.8Y-113.8
X155.8Y-132.0
X155.8Y-150.2
T0
M30
