M48
; DRILL file {KiCad 6.0.1-79c1e3a40b~116~ubuntu21.10.1} date Sun 13 Mar 2022 07:18:43 PM MDT
; FORMAT={-:-/ absolute / metric / decimal}
; #@! TF.CreationDate,2022-03-13T19:18:43-06:00
; #@! TF.GenerationSoftware,Kicad,Pcbnew,6.0.1-79c1e3a40b~116~ubuntu21.10.1
; #@! TF.FileFunction,NonPlated,1,2,NPTH
FMAT,2
METRIC
; #@! TA.AperFunction,NonPlated,NPTH,ComponentDrill
T1C0.991
; #@! TA.AperFunction,NonPlated,NPTH,ComponentDrill
T2C1.500
; #@! TA.AperFunction,NonPlated,NPTH,ComponentDrill
T3C1.702
; #@! TA.AperFunction,NonPlated,NPTH,ComponentDrill
T4C1.800
; #@! TA.AperFunction,NonPlated,NPTH,ComponentDrill
T5C3.429
%
G90
G05
T1
X88.22Y-67.3
X88.22Y-85.5
X88.22Y-103.7
X88.22Y-121.9
X88.22Y-140.1
X106.42Y-67.3
X106.42Y-85.5
X106.42Y-103.7
X106.42Y-121.9
X106.42Y-140.1
X124.62Y-67.3
X124.62Y-85.5
X124.62Y-103.7
X124.62Y-121.9
X124.62Y-140.1
X142.82Y-67.3
X142.82Y-85.5
X142.82Y-103.7
X142.82Y-121.9
X142.82Y-140.1
X161.02Y-67.3
X161.02Y-85.5
X161.02Y-103.7
X161.02Y-121.9
X161.02Y-140.1
T2
X78.98Y-46.225
X78.98Y-51.075
T3
X77.5Y-71.5
X77.5Y-89.7
X77.5Y-107.9
X77.5Y-126.1
X77.5Y-144.3
X88.5Y-71.5
X88.5Y-89.7
X88.5Y-107.9
X88.5Y-126.1
X88.5Y-144.3
X95.7Y-71.5
X95.7Y-89.7
X95.7Y-107.9
X95.7Y-126.1
X95.7Y-144.3
X106.7Y-71.5
X106.7Y-89.7
X106.7Y-107.9
X106.7Y-126.1
X106.7Y-144.3
X113.9Y-71.5
X113.9Y-89.7
X113.9Y-107.9
X113.9Y-126.1
X113.9Y-144.3
X124.9Y-71.5
X124.9Y-89.7
X124.9Y-107.9
X124.9Y-126.1
X124.9Y-144.3
X132.1Y-71.5
X132.1Y-89.7
X132.1Y-107.9
X132.1Y-126.1
X132.1Y-144.3
X143.1Y-71.5
X143.1Y-89.7
X143.1Y-107.9
X143.1Y-126.1
X143.1Y-144.3
X150.3Y-71.5
X150.3Y-89.7
X150.3Y-107.9
X150.3Y-126.1
X150.3Y-144.3
X161.3Y-71.5
X161.3Y-89.7
X161.3Y-107.9
X161.3Y-126.1
X161.3Y-144.3
T4
X75.95Y-45.925
X75.95Y-51.375
T5
X83.0Y-71.5
X83.0Y-89.7
X83.0Y-107.9
X83.0Y-126.1
X83.0Y-144.3
X101.2Y-71.5
X101.2Y-89.7
X101.2Y-107.9
X101.2Y-126.1
X101.2Y-144.3
X119.4Y-71.5
X119.4Y-89.7
X119.4Y-107.9
X119.4Y-126.1
X119.4Y-144.3
X137.6Y-71.5
X137.6Y-89.7
X137.6Y-107.9
X137.6Y-126.1
X137.6Y-144.3
X155.8Y-71.5
X155.8Y-89.7
X155.8Y-107.9
X155.8Y-126.1
X155.8Y-144.3
T0
M30
